<svg width="773" height="589" viewBox="0 0 773 589" fill="none" xmlns="http://www.w3.org/2000/svg">
<path id="Vector 1" d="M4 43L1.07952 40.2667C0.385908 41.0078 0 41.9849 0 43H4ZM40.5 4V0C39.3932 0 38.3358 0.458613 37.5795 1.26673L40.5 4ZM727.5 4L730.239 1.08514L729.085 0H727.5V4ZM769 43H773V41.2699L771.739 40.0851L769 43ZM54.5 101.5V97.5H50.5V101.5H54.5ZM714.5 101.5H718.5V97.5H714.5V101.5ZM4 589H8V43H4H0V589H4ZM4 43L6.92048 45.7333L43.4205 6.73327L40.5 4L37.5795 1.26673L1.07952 40.2667L4 43ZM40.5 4V8H727.5V4V0H40.5V4ZM727.5 4L724.761 6.91486L766.261 45.9149L769 43L771.739 40.0851L730.239 1.08514L727.5 4ZM769 43H765V589H769H773V43H769ZM769 43V39H4V43V47H769V43ZM54.5 589H58.5V101.5H54.5H50.5V589H54.5ZM54.5 101.5V105.5H714.5V101.5V97.5H54.5V101.5ZM714.5 101.5H710.5V589H714.5H718.5V101.5H714.5Z" fill="black"/>
</svg>
