<svg width="1026" height="389" viewBox="0 0 1026 389" fill="none" xmlns="http://www.w3.org/2000/svg">
<path d="M65.802 204.507C66.2159 213.405 70.6648 219.406 79.1487 222.51C87.6326 225.613 98.703 227.372 112.36 227.786C130.362 227.786 144.537 226.545 154.883 224.062C165.436 221.578 170.713 216.405 170.713 208.542C170.713 203.783 166.781 200.576 158.918 198.92C151.055 197.058 141.123 195.506 129.121 194.264C117.119 193.023 104.187 191.678 90.3226 190.229C76.4586 188.574 63.5258 185.574 51.5242 181.228C39.7295 176.883 29.7971 170.778 21.7271 162.915C13.8639 154.845 9.93238 143.671 9.93238 129.394C9.93238 115.943 12.9328 104.666 18.9336 95.5614C24.9344 86.2497 33.0045 78.9039 43.1438 73.5239C53.2831 67.9369 64.5605 64.1088 76.9759 62.0396C89.5983 59.7634 102.324 58.6253 115.154 58.6253C116.188 58.6253 117.326 58.6253 118.568 58.6253C133.053 58.8322 146.503 60.2807 158.918 62.9707C171.54 65.6607 182.404 69.7992 191.509 75.3862C200.82 80.9732 208.063 88.319 213.236 97.4237C218.616 106.528 221.409 117.495 221.616 130.325L166.678 130.945C166.264 122.875 162.022 117.599 153.952 115.116C146.089 112.633 134.294 111.391 118.568 111.391C102.428 111.391 90.0122 112.84 81.3214 115.736C72.6305 118.633 68.2851 123.082 68.2851 129.083C68.2851 133.429 72.2167 136.429 80.0798 138.084C88.1499 139.533 98.0823 140.774 109.877 141.809C121.879 142.844 134.811 144.189 148.675 145.844C162.539 147.292 175.472 150.189 187.474 154.535C199.475 158.673 209.408 164.778 217.271 172.848C225.134 180.711 229.066 191.574 229.066 205.438C229.066 213.508 227.41 221.992 224.099 230.89C220.995 239.788 215.098 247.961 206.407 255.411C197.923 262.653 186.129 268.654 171.023 273.413C156.125 278.172 137.088 280.552 113.912 280.552C93.2195 280.552 76.1483 278.483 62.6982 274.344C49.2481 270.206 38.5914 264.722 30.7283 257.894C22.8652 250.858 17.2782 242.788 13.9674 233.684C10.8635 224.579 9.31161 215.164 9.31161 205.438L65.802 204.507ZM383.653 123.496V169.744H329.956V216.302C329.956 223.13 331.508 227.579 334.612 229.648C337.922 231.718 341.957 232.752 346.717 232.752H391.412V279H332.129C320.955 279 311.54 277.345 303.883 274.034C296.227 270.723 290.019 265.964 285.26 259.756C280.501 253.341 277.087 245.582 275.017 236.477C272.948 227.165 271.913 216.612 271.913 204.818V169.744H241.496V123.496H254.221C258.774 123.496 263.016 121.737 266.947 118.22C271.086 114.495 274.5 109.839 277.19 104.252C280.087 98.4583 282.363 92.0436 284.019 85.0082C285.674 77.9728 286.502 71.1442 286.502 64.5227H344.854C344.647 68.4542 344.13 72.4893 343.302 76.6278C342.475 80.1455 341.337 84.077 339.888 88.4225C338.647 92.5609 336.681 96.6994 333.991 100.838C331.094 105.183 327.473 109.011 323.127 112.322C318.782 115.633 314.643 118.323 310.712 120.392C307.815 121.634 304.401 122.565 300.469 123.186C296.744 123.807 293.33 124.324 290.226 124.738V125.358C293.33 124.945 296.744 124.531 300.469 124.117C304.401 123.703 308.022 123.496 311.333 123.496H383.653ZM541.32 236.787C538.423 244.651 534.595 251.376 529.835 256.963C525.076 262.549 519.903 267.205 514.316 270.93C508.936 274.448 503.245 277.138 497.245 279C491.451 280.655 485.864 281.483 480.484 281.483C468.482 281.483 458.032 279.621 449.135 275.896C440.444 271.965 433.098 266.067 427.097 258.204C421.303 250.134 416.958 240.202 414.061 228.407C411.371 216.405 410.026 202.334 410.026 186.194V123.807H468.379V186.505C468.379 192.919 469.31 198.506 471.172 203.266C473.034 208.025 475.621 211.853 478.932 214.75C482.243 217.647 485.967 219.82 490.106 221.268C494.451 222.51 499.003 223.13 503.763 223.13C508.729 223.13 513.592 222.51 518.351 221.268C523.317 219.82 527.663 217.543 531.387 214.44C535.319 211.129 538.526 206.887 541.009 201.714C543.492 196.334 544.734 189.712 544.734 181.849V123.807H603.087V279H544.734V237.408C544.734 234.304 544.941 230.89 545.355 227.165C545.768 223.234 546.286 219.716 546.907 216.612H546.286C545.665 219.716 545.044 223.13 544.423 226.855C543.803 230.58 542.768 233.89 541.32 236.787ZM764.997 257.583C761.479 261.308 757.444 264.619 752.892 267.516C748.546 270.206 743.891 272.585 738.924 274.655C733.958 276.724 728.785 278.276 723.405 279.31C718.025 280.345 712.749 280.862 707.575 280.862C679.227 280.862 657.81 274.344 643.325 261.308C628.841 248.272 621.598 228.303 621.598 201.403C621.598 174.503 628.841 154.638 643.325 141.809C657.81 128.773 679.227 122.151 707.575 121.944C712.749 121.944 718.025 122.565 723.405 123.807C728.785 124.841 733.958 126.497 738.924 128.773C744.098 130.842 748.857 133.429 753.202 136.532C757.548 139.429 761.479 142.74 764.997 146.465C767.48 148.948 769.549 152.155 771.205 156.087C772.86 160.018 774.205 163.64 775.24 166.95H775.861C774.826 163.433 773.895 159.605 773.067 155.466C772.239 151.328 771.825 147.499 771.825 143.982V61.7292H829.868V279H771.825V260.066C771.825 256.549 772.239 252.721 773.067 248.582C773.895 244.444 774.826 240.719 775.861 237.408L775.24 237.098C774.205 240.409 772.86 244.03 771.205 247.961C769.549 251.893 767.48 255.1 764.997 257.583ZM721.543 235.546C729.613 235.546 736.752 234.615 742.96 232.752C749.374 230.89 754.651 228.407 758.789 225.303C763.135 222.199 766.342 218.578 768.411 214.44C770.687 210.301 771.825 205.956 771.825 201.403C771.825 196.851 770.687 192.402 768.411 188.057C766.342 183.504 763.135 179.469 758.789 175.952C754.651 172.227 749.374 169.33 742.96 167.261C736.752 164.985 729.613 163.846 721.543 163.846C713.059 163.846 706.023 164.985 700.436 167.261C695.056 169.537 690.815 172.537 687.711 176.262C684.607 179.78 682.434 183.815 681.193 188.367C679.951 192.712 679.33 197.058 679.33 201.403C679.33 205.749 679.951 209.991 681.193 214.129C682.434 218.061 684.607 221.682 687.711 224.993C691.021 228.097 695.367 230.683 700.747 232.752C706.127 234.615 713.059 235.546 721.543 235.546ZM848.629 107.666V61.7292H906.982V107.666H848.629ZM906.361 123.807V279H849.25V123.807H906.361ZM1134.82 201.403C1134.82 214.853 1131.92 226.545 1126.13 236.477C1120.54 246.409 1112.99 254.686 1103.47 261.308C1093.95 267.93 1082.88 272.896 1070.26 276.207C1057.64 279.31 1044.29 280.862 1030.22 280.862C1016.15 280.862 1002.8 279.31 990.18 276.207C977.558 272.896 966.487 267.93 956.969 261.308C947.45 254.686 939.794 246.409 934 236.477C928.413 226.545 925.62 214.853 925.62 201.403C925.62 187.953 928.413 176.262 934 166.33C939.794 156.397 947.45 148.12 956.969 141.499C966.487 134.877 977.558 130.014 990.18 126.91C1002.8 123.6 1016.15 121.944 1030.22 121.944C1044.29 121.944 1057.64 123.6 1070.26 126.91C1082.88 130.221 1093.95 135.187 1103.47 141.809C1112.99 148.224 1120.54 156.397 1126.13 166.33C1131.92 176.262 1134.82 187.953 1134.82 201.403ZM1076.47 201.403C1076.47 196.23 1075.23 191.574 1072.74 187.436C1070.26 183.09 1066.85 179.366 1062.5 176.262C1058.36 173.158 1053.4 170.778 1047.6 169.123C1042.01 167.468 1036.22 166.64 1030.22 166.64C1024.22 166.64 1018.43 167.468 1012.84 169.123C1007.25 170.778 1002.29 173.158 997.94 176.262C993.801 179.366 990.387 183.09 987.697 187.436C985.214 191.781 983.972 196.437 983.972 201.403C983.972 206.576 985.111 211.336 987.387 215.681C989.87 220.026 993.181 223.648 997.319 226.545C1001.66 229.442 1006.63 231.718 1012.22 233.373C1017.8 234.822 1023.81 235.546 1030.22 235.546C1036.43 235.546 1042.33 234.822 1047.91 233.373C1053.5 231.718 1058.36 229.442 1062.5 226.545C1066.85 223.441 1070.26 219.82 1072.74 215.681C1075.23 211.336 1076.47 206.576 1076.47 201.403Z" fill="black"/>
</svg>
