<svg width="303" height="152" viewBox="0 0 303 152" fill="none" xmlns="http://www.w3.org/2000/svg">
<g id="Group">
<path id="SIMULASI" d="M10.752 43.472C10.9227 45.6907 11.9893 47.312 13.952 48.336C15.9147 49.36 18.496 49.8933 21.696 49.936C25.5787 49.936 28.608 49.4667 30.784 48.528C33.0027 47.5467 34.112 45.968 34.112 43.792C34.112 42.4267 33.3227 41.4453 31.744 40.848C30.208 40.2507 28.2453 39.7813 25.856 39.44C23.5093 39.056 20.9493 38.6933 18.176 38.352C15.4453 38.0107 12.9067 37.4347 10.56 36.624C8.21333 35.7707 6.25067 34.576 4.672 33.04C3.09333 31.504 2.304 29.3493 2.304 26.576C2.304 24.0587 2.83733 21.904 3.904 20.112C5.01333 18.32 6.48533 16.8693 8.32 15.76C10.1973 14.608 12.3093 13.7973 14.656 13.328C17.0027 12.816 19.392 12.56 21.824 12.56C22.0373 12.56 22.2507 12.56 22.464 12.56C25.1093 12.6027 27.5627 12.9013 29.824 13.456C32.128 13.968 34.1333 14.7787 35.84 15.888C37.5467 16.9547 38.8907 18.3413 39.872 20.048C40.896 21.712 41.472 23.696 41.6 26L32.96 26.448C32.7893 24.528 31.8507 23.1413 30.144 22.288C28.48 21.392 25.92 20.944 22.464 20.944C18.9653 20.944 16.256 21.4347 14.336 22.416C12.416 23.3547 11.456 24.72 11.456 26.512C11.456 27.7493 12.2453 28.624 13.824 29.136C15.4027 29.648 17.3653 30.0533 19.712 30.352C22.0587 30.6507 24.5973 30.9707 27.328 31.312C30.1013 31.6533 32.6613 32.2507 35.008 33.104C37.3973 33.9147 39.36 35.1307 40.896 36.752C42.4747 38.3307 43.264 40.528 43.264 43.344C43.264 44.9653 42.9653 46.672 42.368 48.464C41.7707 50.2133 40.6613 51.8133 39.04 53.264C37.4613 54.7147 35.2853 55.9307 32.512 56.912C29.7387 57.8507 26.1973 58.32 21.888 58.32C18.0053 58.32 14.784 57.9147 12.224 57.104C9.664 56.2933 7.63733 55.2267 6.144 53.904C4.65067 52.5387 3.584 51.0027 2.944 49.296C2.304 47.5467 1.96267 45.7547 1.92 43.92L10.752 43.472ZM47.1075 13.2H56.2595V58H47.1075V13.2ZM99.4035 13.136H109.068V57.936L99.9155 58V35.856C99.9155 34.576 100.001 33.168 100.172 31.632C100.385 30.096 100.641 28.688 100.94 27.408H100.812C100.513 28.6453 100.129 30.0107 99.6595 31.504C99.1902 32.9973 98.6568 34.32 98.0595 35.472L88.0115 58H81.0995L71.1155 35.472C70.5182 34.32 69.9848 32.9973 69.5155 31.504C69.0462 30.0107 68.6622 28.6453 68.3635 27.408H68.2355C68.5342 28.688 68.7688 30.096 68.9395 31.632C69.1528 33.168 69.2595 34.576 69.2595 35.856V58H60.1075V13.2H69.7715L84.1075 44.368C84.2355 44.6667 84.3208 45.0293 84.3635 45.456C84.4488 45.84 84.4915 46.2027 84.4915 46.544H84.6195C84.6195 46.2027 84.6622 45.84 84.7475 45.456C84.8328 45.0293 84.9395 44.6667 85.0675 44.368L99.4035 13.136ZM155.8 37.84C155.8 41.3813 155.203 44.4533 154.008 47.056C152.813 49.6587 151.235 51.8133 149.272 53.52C147.309 55.184 145.048 56.4427 142.488 57.296C139.928 58.1067 137.261 58.512 134.488 58.512C131.501 58.512 128.707 58.128 126.104 57.36C123.501 56.5493 121.219 55.312 119.256 53.648C117.336 51.984 115.8 49.8507 114.648 47.248C113.496 44.6027 112.92 41.4667 112.92 37.84V13.2H122.072V37.904C122.072 39.824 122.371 41.552 122.968 43.088C123.608 44.5813 124.483 45.8613 125.592 46.928C126.701 47.952 128.003 48.7413 129.496 49.296C131.032 49.8507 132.696 50.128 134.488 50.128C136.323 50.128 137.987 49.872 139.48 49.36C140.973 48.8053 142.253 48.016 143.32 46.992C144.429 45.968 145.261 44.7093 145.816 43.216C146.413 41.68 146.712 39.9093 146.712 37.904V13.2H155.8V37.84ZM194.87 49.616V58H159.67V13.2H168.822V47.184C168.822 47.9093 168.651 48.656 168.31 49.424C168.011 50.1493 167.606 50.768 167.094 51.28L167.158 51.344C167.67 50.832 168.289 50.4267 169.014 50.128C169.782 49.7867 170.529 49.616 171.254 49.616H194.87ZM234.573 58L231.117 48.784H212.173L208.653 58H198.733L215.628 13.2H227.789L244.685 58H234.573ZM221.581 22.992L214.669 41.168C215.949 41.168 217.079 41.168 218.061 41.168C219.085 41.168 219.981 41.1893 220.749 41.232C221.559 41.2747 222.541 41.3173 223.693 41.36C224.845 41.4027 225.954 41.5093 227.021 41.68C228.002 41.936 228.962 43.088 229.901 45.136L221.581 22.992ZM254.815 43.472C254.985 45.6907 256.052 47.312 258.015 48.336C259.977 49.36 262.559 49.8933 265.759 49.936C269.641 49.936 272.671 49.4667 274.847 48.528C277.065 47.5467 278.175 45.968 278.175 43.792C278.175 42.4267 277.385 41.4453 275.807 40.848C274.271 40.2507 272.308 39.7813 269.919 39.44C267.572 39.056 265.012 38.6933 262.239 38.352C259.508 38.0107 256.969 37.4347 254.623 36.624C252.276 35.7707 250.313 34.576 248.735 33.04C247.156 31.504 246.367 29.3493 246.367 26.576C246.367 24.0587 246.9 21.904 247.967 20.112C249.076 18.32 250.548 16.8693 252.383 15.76C254.26 14.608 256.372 13.7973 258.719 13.328C261.065 12.816 263.455 12.56 265.887 12.56C266.1 12.56 266.313 12.56 266.527 12.56C269.172 12.6027 271.625 12.9013 273.887 13.456C276.191 13.968 278.196 14.7787 279.903 15.888C281.609 16.9547 282.953 18.3413 283.935 20.048C284.959 21.712 285.535 23.696 285.663 26L277.023 26.448C276.852 24.528 275.913 23.1413 274.207 22.288C272.543 21.392 269.983 20.944 266.527 20.944C263.028 20.944 260.319 21.4347 258.399 22.416C256.479 23.3547 255.519 24.72 255.519 26.512C255.519 27.7493 256.308 28.624 257.887 29.136C259.465 29.648 261.428 30.0533 263.775 30.352C266.121 30.6507 268.66 30.9707 271.391 31.312C274.164 31.6533 276.724 32.2507 279.071 33.104C281.46 33.9147 283.423 35.1307 284.959 36.752C286.537 38.3307 287.327 40.528 287.327 43.344C287.327 44.9653 287.028 46.672 286.431 48.464C285.833 50.2133 284.724 51.8133 283.103 53.264C281.524 54.7147 279.348 55.9307 276.575 56.912C273.801 57.8507 270.26 58.32 265.951 58.32C262.068 58.32 258.847 57.9147 256.287 57.104C253.727 56.2933 251.7 55.2267 250.207 53.904C248.713 52.5387 247.647 51.0027 247.007 49.296C246.367 47.5467 246.025 45.7547 245.983 43.92L254.815 43.472ZM291.17 13.2H300.322V58H291.17V13.2Z" fill="black"/>
<path id="Studio" d="M10.752 118.399C10.9227 120.618 11.9893 122.239 13.952 123.263C15.9147 124.287 18.496 124.821 21.696 124.863C25.5787 124.863 28.608 124.394 30.784 123.455C33.0027 122.474 34.112 120.895 34.112 118.719C34.112 117.354 33.3227 116.373 31.744 115.775C30.208 115.178 28.2453 114.709 25.856 114.367C23.5093 113.983 20.9493 113.621 18.176 113.279C15.4453 112.938 12.9067 112.362 10.56 111.551C8.21333 110.698 6.25067 109.503 4.672 107.967C3.09333 106.431 2.304 104.277 2.304 101.503C2.304 98.9861 2.83733 96.8314 3.904 95.0394C5.01333 93.2474 6.48533 91.7968 8.32 90.6874C10.1973 89.5354 12.3093 88.7248 14.656 88.2554C17.0027 87.7434 19.392 87.4874 21.824 87.4874C22.0373 87.4874 22.2507 87.4874 22.464 87.4874C25.1093 87.5301 27.5627 87.8288 29.824 88.3834C32.128 88.8954 34.1333 89.7061 35.84 90.8154C37.5467 91.8821 38.8907 93.2688 39.872 94.9754C40.896 96.6394 41.472 98.6234 41.6 100.927L32.96 101.375C32.7893 99.4554 31.8507 98.0688 30.144 97.2154C28.48 96.3194 25.92 95.8714 22.464 95.8714C18.9653 95.8714 16.256 96.3621 14.336 97.3434C12.416 98.2821 11.456 99.6474 11.456 101.439C11.456 102.677 12.2453 103.551 13.824 104.063C15.4027 104.575 17.3653 104.981 19.712 105.279C22.0587 105.578 24.5973 105.898 27.328 106.239C30.1013 106.581 32.6613 107.178 35.008 108.031C37.3973 108.842 39.36 110.058 40.896 111.679C42.4747 113.258 43.264 115.455 43.264 118.271C43.264 119.893 42.9653 121.599 42.368 123.391C41.7707 125.141 40.6613 126.741 39.04 128.191C37.4613 129.642 35.2853 130.858 32.512 131.839C29.7387 132.778 26.1973 133.247 21.888 133.247C18.0053 133.247 14.784 132.842 12.224 132.031C9.664 131.221 7.63733 130.154 6.144 128.831C4.65067 127.466 3.584 125.93 2.944 124.223C2.304 122.474 1.96267 120.682 1.92 118.847L10.752 118.399ZM71.0095 100.735V108.223H61.4095V122.047C61.4095 123.455 61.7295 124.373 62.3695 124.799C63.0522 125.226 63.8842 125.439 64.8655 125.439H72.6095V132.927H63.5855C61.3668 132.927 59.5322 132.671 58.0815 132.159C56.6308 131.605 55.4788 130.794 54.6255 129.727C53.7722 128.618 53.1748 127.253 52.8335 125.631C52.4922 124.01 52.3215 122.133 52.3215 119.999V108.223H45.8575V100.735H47.7775C48.5882 100.735 49.3988 100.415 50.2095 99.7754C51.0202 99.0928 51.7242 98.2181 52.3215 97.1514C52.9615 96.0848 53.4735 94.9114 53.8575 93.6314C54.2415 92.3088 54.4335 91.0288 54.4335 89.7914H63.5855C63.5428 90.5168 63.4575 91.2634 63.3295 92.0314C63.1588 92.7141 62.9455 93.4608 62.6895 94.2714C62.4335 95.0821 62.0495 95.8928 61.5375 96.7034C61.0682 97.3861 60.4708 98.0261 59.7455 98.6234C59.0628 99.1781 58.4015 99.6474 57.7615 100.031C57.1642 100.33 56.4602 100.565 55.6495 100.735C54.8815 100.863 54.1775 100.97 53.5375 101.055V101.183C54.1775 101.098 54.8815 101.013 55.6495 100.927C56.4602 100.799 57.2068 100.735 57.8895 100.735H71.0095ZM100.996 125.439C100.399 126.847 99.6733 128.063 98.82 129.087C97.9667 130.069 97.028 130.879 96.004 131.519C95.0227 132.159 93.9773 132.629 92.868 132.927C91.8013 133.269 90.7133 133.439 89.604 133.439C87.2147 133.439 85.188 133.034 83.524 132.223C81.86 131.37 80.4947 130.154 79.428 128.575C78.3613 126.997 77.5933 125.119 77.124 122.943C76.6547 120.725 76.42 118.25 76.42 115.519V100.927H85.572V115.583C85.572 117.077 85.7427 118.378 86.084 119.487C86.468 120.597 86.98 121.514 87.62 122.239C88.3027 122.922 89.092 123.434 89.988 123.775C90.9267 124.117 91.972 124.287 93.124 124.287C93.9773 124.287 94.8947 124.138 95.876 123.839C96.9 123.498 97.8387 122.901 98.692 122.047C99.588 121.194 100.313 120.042 100.868 118.591C101.465 117.098 101.764 115.199 101.764 112.895V100.927H110.916V132.927H101.764V125.567C101.764 124.927 101.807 124.223 101.892 123.455C102.02 122.645 102.148 121.919 102.276 121.279H102.148C102.02 121.919 101.871 122.623 101.7 123.391C101.529 124.159 101.295 124.842 100.996 125.439ZM143.341 128.511C142.615 129.279 141.762 129.962 140.781 130.559C139.842 131.114 138.839 131.605 137.773 132.031C136.706 132.458 135.597 132.778 134.445 132.991C133.335 133.205 132.247 133.311 131.181 133.311C125.89 133.311 121.815 131.967 118.957 129.279C116.141 126.591 114.733 122.474 114.733 116.927C114.733 111.381 116.141 107.285 118.957 104.639C121.815 101.951 125.89 100.586 131.181 100.543C132.247 100.543 133.335 100.671 134.445 100.927C135.597 101.141 136.706 101.482 137.773 101.951C138.882 102.378 139.906 102.911 140.845 103.551C141.783 104.149 142.615 104.831 143.341 105.599C143.853 106.111 144.279 106.773 144.621 107.583C145.005 108.394 145.303 109.141 145.517 109.823H145.645C145.431 109.098 145.239 108.309 145.069 107.455C144.898 106.602 144.812 105.813 144.812 105.087V88.1274H153.901V132.927H144.812V129.023C144.812 128.298 144.898 127.509 145.069 126.655C145.239 125.802 145.431 125.034 145.645 124.351L145.517 124.287C145.303 124.97 145.005 125.717 144.621 126.527C144.279 127.338 143.853 127.999 143.341 128.511ZM133.677 125.951C135.213 125.951 136.663 125.738 138.029 125.311C139.394 124.842 140.567 124.223 141.549 123.455C142.573 122.645 143.362 121.685 143.917 120.575C144.514 119.466 144.812 118.25 144.812 116.927C144.812 115.605 144.514 114.367 143.917 113.215C143.362 112.063 142.573 111.061 141.549 110.207C140.567 109.311 139.394 108.629 138.029 108.159C136.663 107.69 135.213 107.455 133.677 107.455C131.842 107.455 130.285 107.69 129.005 108.159C127.725 108.629 126.701 109.29 125.933 110.143C125.207 110.954 124.674 111.935 124.333 113.087C123.991 114.239 123.821 115.519 123.821 116.927C123.821 118.335 123.991 119.594 124.333 120.703C124.674 121.813 125.229 122.751 125.997 123.519C126.765 124.287 127.767 124.885 129.005 125.311C130.285 125.738 131.842 125.951 133.677 125.951ZM157.733 95.5514V88.1274H166.949V95.5514H157.733ZM166.821 100.927V132.927H157.861V100.927H166.821ZM210.027 116.927C210.027 119.701 209.494 122.111 208.427 124.159C207.36 126.207 205.931 127.914 204.139 129.279C202.39 130.645 200.32 131.669 197.931 132.351C195.584 132.991 193.088 133.311 190.443 133.311C187.798 133.311 185.28 132.991 182.891 132.351C180.544 131.669 178.475 130.645 176.683 129.279C174.891 127.914 173.462 126.207 172.395 124.159C171.328 122.111 170.795 119.701 170.795 116.927C170.795 114.154 171.328 111.743 172.395 109.695C173.462 107.647 174.891 105.941 176.683 104.575C178.475 103.21 180.544 102.207 182.891 101.567C185.28 100.885 187.798 100.543 190.443 100.543C193.088 100.543 195.584 100.885 197.931 101.567C200.32 102.25 202.39 103.274 204.139 104.639C205.931 105.962 207.36 107.647 208.427 109.695C209.494 111.743 210.027 114.154 210.027 116.927ZM200.875 116.927C200.875 115.477 200.598 114.197 200.043 113.087C199.488 111.978 198.72 111.039 197.739 110.271C196.8 109.461 195.691 108.863 194.411 108.479C193.131 108.053 191.808 107.839 190.443 107.839C189.078 107.839 187.755 108.053 186.475 108.479C185.238 108.863 184.128 109.439 183.147 110.207C182.166 110.975 181.376 111.935 180.779 113.087C180.224 114.239 179.947 115.519 179.947 116.927C179.947 118.378 180.203 119.679 180.715 120.831C181.27 121.983 182.016 122.943 182.955 123.711C183.936 124.437 185.067 124.991 186.347 125.375C187.627 125.759 188.992 125.951 190.443 125.951C191.851 125.951 193.174 125.759 194.411 125.375C195.691 124.991 196.8 124.415 197.739 123.647C198.72 122.879 199.488 121.941 200.043 120.831C200.598 119.679 200.875 118.378 200.875 116.927Z" fill="black"/>
</g>
</svg>
