<svg width="800" height="800" viewBox="0 0 800 800" fill="none" xmlns="http://www.w3.org/2000/svg">
  <!-- Background -->
  <rect width="800" height="800" fill="#18181B"/>
  
  <!-- Subtle Grid Lines -->
  <path d="M0 100H800M0 200H800M0 300H800M0 400H800M0 500H800M0 600H800M0 700H800" stroke="#27272A" stroke-width="1"/>
  <path d="M100 0V800M200 0V800M300 0V800M400 0V800M500 0V800M600 0V800M700 0V800" stroke="#27272A" stroke-width="1"/>
  
  <!-- Main Frame -->
  <rect x="100" y="100" width="600" height="600" stroke="#3F3F46" stroke-width="2" stroke-dasharray="12 12"/>
  
  <!-- Diagonal Cross -->
  <line x1="100" y1="100" x2="700" y2="700" stroke="#3F3F46" stroke-width="1"/>
  <line x1="700" y1="100" x2="100" y2="700" stroke="#3F3F46" stroke-width="1"/>
  
  <!-- Central Icon Frame -->
  <rect x="300" y="300" width="200" height="200" fill="#27272A" stroke="#52525B" stroke-width="2"/>
  
  <!-- Wireframe Image Symbol -->
  <path d="M340 440L390 380L420 410L460 350L480 390" stroke="#71717A" stroke-width="3" stroke-linecap="round" stroke-linejoin="round"/>
  <circle cx="360" cy="350" r="15" stroke="#71717A" stroke-width="3"/>
  
  <!-- Corner Markers -->
  <path d="M80 80H120M80 80V120" stroke="# studio-400" stroke-width="2" style="stroke: #a5a5f2;"/> <!-- color studio-400 equivalent -->
  <path d="M720 80H680M720 80V120" stroke="#a5a5f2" stroke-width="2"/>
  <path d="M80 720H120M80 720V680" stroke="#a5a5f2" stroke-width="2"/>
  <path d="M720 720H680M720 720V680" stroke="#a5a5f2" stroke-width="2"/>
  
  <!-- Dimension Labels (Abstract) -->
  <text x="400" y="70" text-anchor="middle" fill="#52525B" font-family="monospace" font-size="12">1:1 ASPECT_RATIO</text>
  <text x="400" y="750" text-anchor="middle" fill="#52525B" font-family="monospace" font-size="12">WIREFRAME_PLACEHOLDER_V1</text>
</svg>
